<?xml version="1.0" encoding="UTF-8"?>
<svg id="Layer_2" data-name="Layer 2" xmlns="http://www.w3.org/2000/svg" viewBox="0 0 22.68 26.3">
  <defs>
    <style>
      .cls-1 {
        fill: #0dffd3;
      }

      .cls-2 {
        fill: #292929;
      }
    </style>
  </defs>
  <g id="HARDSKILLS">
    <g id="Layer_10" data-name="Layer 10">
      <g id="skills-2022">
        <g id="MYSQL">
          <g>
            <path class="cls-1" d="m22.68,21.98c0,1.51-1.02,2.82-2.48,3.2-2.37.61-5.37,1.12-8.86,1.12s-6.49-.51-8.86-1.12c-1.46-.38-2.48-1.69-2.48-3.2V4.27C0,2.76,1.02,1.43,2.48,1.07,4.85.49,7.8.01,11.21,0c3.5-.01,6.53.47,8.94,1.06,1.48.36,2.52,1.68,2.52,3.21v17.72Z"/>
            <g id="_6d6ad09290db83de6a72c16243972d7f" data-name=" 6d6ad09290db83de6a72c16243972d7f">
              <path class="cls-2" d="m20.27,21.26l-.38-.34c-.18-.23-.39-.44-.61-.63h0c-.22-.2-.46-.38-.7-.55-.19-.13-.46-.28-.8-.46-.27-.11-.49-.32-.61-.59h0s-.04-.02-.04-.02c.15-.01.3-.04.44-.08h-.02s.43-.11.43-.11c.19-.06.39-.09.59-.09h0c.21,0,.43-.04.63-.1h-.02c.1-.02.2-.04.3-.07.1-.03.19-.05.26-.08v-.12c-.07-.1-.16-.22-.26-.35-.1-.12-.21-.24-.33-.33h0c-.31-.27-.64-.52-.98-.77-.3-.22-.63-.44-.98-.65l-.05-.03c-.2-.12-.4-.23-.62-.31h-.03c-.22-.09-.44-.19-.66-.29-.08-.04-.16-.06-.25-.08h0c-.08-.02-.16-.06-.22-.12h0c-.11-.13-.2-.28-.27-.43h0c-.07-.17-.15-.33-.24-.48-.18-.33-.36-.67-.53-1.01-.17-.34-.33-.69-.49-1.03-.11-.23-.21-.46-.3-.69-.09-.23-.21-.46-.34-.67v.02c-.29-.49-.62-.95-.99-1.39l.02.03c-.34-.4-.7-.78-1.09-1.13h0c-.39-.35-.8-.67-1.22-.97l-.04-.02c-.45-.31-.94-.61-1.47-.91-.23-.13-.47-.22-.72-.28h-.02s-.83-.2-.83-.2l-.47-.03c-.16-.01-.31-.02-.47-.02-.11-.05-.2-.12-.29-.2-.08-.08-.17-.15-.26-.21h0c-.49-.27-1-.49-1.53-.67l-.06-.02c-.15-.08-.33-.13-.5-.13-.13,0-.25.02-.37.07h0c-.28.1-.5.32-.6.59h0c-.06.14-.09.28-.09.42,0,.25.09.5.26.69h0c.27.34.48.61.63.81.11.14.22.28.34.43.11.14.2.29.27.45h0c.04.11.08.2.11.3h0c.02.11.05.22.09.33.11.26.21.53.31.81.1.28.22.55.36.8v-.03c.06.13.13.25.2.37s.15.24.24.35c.05.07.11.13.18.17h0c.07.05.12.13.13.22h0c-.09.12-.14.27-.16.42h0c-.02.17-.06.34-.11.5v-.02c-.23.68-.31,1.41-.23,2.13v-.02c.04.66.25,1.29.61,1.85v-.02c.13.2.29.39.47.56.13.14.32.22.51.22.11,0,.22-.02.32-.07h0c.26-.08.44-.31.46-.59h0c.03-.32.09-.63.16-.93v.05s.02-.1.02-.15c0-.01,0-.02,0-.03h0c0-.05.03-.1.1-.15v.03c.07.16.15.32.23.48.08.16.16.32.24.48.21.31.45.59.71.85h0c.26.26.54.5.84.71h.02c.15.12.3.25.42.39h0c.12.14.26.24.42.33h0s0-.01,0-.01h.04c-.03-.06-.08-.11-.13-.15h0c-.05-.03-.11-.06-.16-.1h0c-.11-.1-.22-.22-.34-.34-.12-.13-.22-.25-.32-.36-.25-.33-.5-.68-.73-1.04-.23-.36-.45-.73-.65-1.11-.1-.18-.19-.37-.28-.57-.09-.19-.18-.38-.26-.57-.04-.07-.06-.15-.07-.24h0c0-.08-.05-.16-.13-.19h0c-.09.14-.19.27-.31.39h0c-.12.12-.22.26-.29.41h0c-.11.27-.18.55-.22.83h0c-.04.32-.07.63-.11.95l-.04.02-.02.02c-.19-.03-.35-.15-.44-.31h0c-.09-.17-.17-.33-.24-.49-.2-.48-.3-1-.32-1.52h0c0-.09,0-.19,0-.3,0-.46.08-.92.22-1.36v.03c.03-.13.11-.34.23-.64.12-.3.15-.5.07-.62-.04-.11-.11-.22-.2-.29h0c-.09-.07-.17-.15-.25-.24h0c-.08-.12-.17-.24-.24-.37s-.15-.26-.21-.39c-.14-.31-.26-.63-.36-.96l-.02-.06c-.11-.37-.24-.72-.41-1.07l.02.05c-.08-.17-.18-.33-.29-.48h0c-.12-.15-.23-.29-.33-.43-.12-.15-.24-.29-.36-.43-.12-.14-.23-.3-.32-.47h0c-.04-.09-.07-.17-.09-.25h0s-.01-.06-.01-.09c0-.06.02-.11.05-.16h0s.03-.07.06-.1c.03-.03.07-.04.11-.05h0c.12-.07.27-.08.4-.02h0c.14.04.29.08.43.14h-.03c.23.08.44.17.63.26.21.09.4.2.59.33h-.01c.1.05.19.11.29.18.1.07.2.14.31.21h.25c.19,0,.4,0,.62.03.21.01.42.05.62.12h-.02c.33.09.65.21.96.36h-.03c.3.13.58.28.84.44.41.24.81.52,1.18.82h-.01c.36.28.71.6,1.03.94h0c.32.34.61.68.88,1.05l.02.03c.27.36.51.74.73,1.13l.03.06c.07.12.13.25.18.38v.02c.06.13.11.27.17.41.13.29.28.58.43.87.15.29.29.58.43.85l.4.83c.13.27.29.53.48.77h0c.16.15.36.25.58.29h0c.25.06.49.13.73.23h-.04c.13.04.26.09.39.13h.03c.15.05.29.11.42.19h0c.23.11.44.25.65.39h-.02c.21.13.41.27.62.39.1.07.26.17.49.3s.35.25.36.37c-.09,0-.19,0-.29,0-.36,0-.73.02-1.09.07h.04c-.38.04-.75.14-1.11.27h.03c-.09.03-.19.06-.29.08h-.01c-.1.02-.19.1-.2.2h0c.05.06.08.12.11.19h0c.02.07.05.14.09.2h0c.08.14.18.27.29.39h0c.1.12.22.23.36.32h0c.12.1.25.19.38.29.13.09.26.18.4.26h.02c.23.14.47.26.72.35h.03c.26.11.51.24.74.39h-.01c.15.07.29.16.43.26.14.1.28.19.42.28.05.05.1.11.14.17h0c.07.08.17.13.27.14h0v-.03c-.07-.05-.11-.11-.14-.19h0c-.02-.07-.05-.14-.08-.2h0s0,0,0,0ZM6.35,7.61c-.1,0-.19,0-.27,0-.08,0-.16.02-.24.04h0s0,.02,0,.02h.04c.05.07.11.15.18.23.07.09.14.17.2.25l.29.57.04-.02c.08-.06.15-.14.19-.23h0c.04-.11.06-.22.06-.34,0-.01,0-.03,0-.04h0s-.06-.07-.08-.11h0s-.06-.13-.06-.13c-.04-.06-.1-.11-.16-.14h0c-.07-.03-.13-.07-.18-.12h0Z"/>
            </g>
          </g>
        </g>
      </g>
    </g>
  </g>
</svg>