<?xml version="1.0" encoding="UTF-8"?>
<svg id="Layer_2" data-name="Layer 2" xmlns="http://www.w3.org/2000/svg" viewBox="0 0 22.68 22.68">
  <defs>
    <style>
      .cls-1 {
        fill: #0dffd3;
      }
    </style>
  </defs>
  <g id="HARDSKILLS">
    <g id="Layer_10" data-name="Layer 10">
      <g id="skills-2022">
        <g id="TS">
          <path id="c6b1625e7db778c3a0329314b184f493" class="cls-1" d="m0,11.34v11.34h22.68V0H0v11.34Zm18.27-.91c.54.13,1.04.41,1.42.82.21.22.39.46.54.73,0,.03-.98.69-1.58,1.06-.02.01-.11-.08-.21-.22-.22-.38-.62-.62-1.06-.64-.69-.05-1.13.31-1.13.91,0,.15.03.29.1.42.15.31.43.5,1.31.88,1.62.7,2.32,1.16,2.75,1.81.48.73.59,1.9.26,2.76-.36.94-1.25,1.58-2.51,1.8-.57.07-1.15.06-1.73-.02-.87-.14-1.68-.56-2.3-1.19-.21-.23-.62-.83-.59-.87.07-.05.14-.09.21-.13l.83-.48.65-.38.14.2c.23.33.52.61.86.82.73.38,1.72.33,2.21-.11.34-.33.39-.86.13-1.26-.18-.25-.54-.46-1.56-.91-1.17-.5-1.67-.82-2.14-1.31-.29-.33-.5-.72-.62-1.13-.09-.48-.1-.97-.04-1.45.24-1.13,1.09-1.92,2.33-2.15.57-.07,1.15-.05,1.72.05h0Zm-5.32.95v.93h-2.94v8.39h-2.09v-8.39h-2.95v-.91c0-.31,0-.62.03-.94.01-.01,1.81-.02,3.99-.02h3.96v.93Z"/>
        </g>
      </g>
    </g>
  </g>
</svg>